<?xml version="1.0" encoding="UTF-8" standalone="no"?>
<svg
   xmlns:dc="http://purl.org/dc/elements/1.1/"
   xmlns:cc="http://creativecommons.org/ns#"
   xmlns:rdf="http://www.w3.org/1999/02/22-rdf-syntax-ns#"
   xmlns:svg="http://www.w3.org/2000/svg"
   xmlns="http://www.w3.org/2000/svg"
   xmlns:sodipodi="http://sodipodi.sourceforge.net/DTD/sodipodi-0.dtd"
   xmlns:inkscape="http://www.inkscape.org/namespaces/inkscape"
   role="img"
   viewBox="0 0 24 24"
   version="1.1"
   id="svg837"
   sodipodi:docname="github.svg"
   inkscape:version="1.0 (4035a4f, 2020-05-01)">
  <metadata
     id="metadata843">
    <rdf:RDF>
      <cc:Work
         rdf:about="">
        <dc:format>image/svg+xml</dc:format>
        <dc:type
           rdf:resource="http://purl.org/dc/dcmitype/StillImage" />
      </cc:Work>
    </rdf:RDF>
  </metadata>
  <defs
     id="defs841">
    <filter
       height="3.4289951"
       y="-1.2144976"
       width="3.371689"
       x="-1.1858445"
       id="filter842"
       style="color-interpolation-filters:sRGB"
       inkscape:collect="always">
      <feGaussianBlur
         id="feGaussianBlur844"
         stdDeviation="11.790277"
         inkscape:collect="always" />
    </filter>
  </defs>
  <sodipodi:namedview
     inkscape:document-rotation="0"
     pagecolor="#ffffff"
     bordercolor="#666666"
     borderopacity="1"
     objecttolerance="10"
     gridtolerance="10"
     guidetolerance="10"
     inkscape:pageopacity="0"
     inkscape:pageshadow="2"
     inkscape:window-width="1675"
     inkscape:window-height="878"
     id="namedview839"
     showgrid="false"
     inkscape:zoom="29.666667"
     inkscape:cx="2.5831517"
     inkscape:cy="12"
     inkscape:window-x="5"
     inkscape:window-y="23"
     inkscape:window-maximized="0"
     inkscape:current-layer="svg837" />
  <title
     id="title833">GitHub icon</title>
  <path
     d="m 12,0.297 c -6.63,0 -12,5.373 -12,12 0,5.303 3.438,9.8 8.205,11.385 0.6,0.113 0.82,-0.258 0.82,-0.577 0,-0.285 -0.01,-1.04 -0.015,-2.04 C 5.672,21.789 4.968,19.455 4.968,19.455 4.422,18.07 3.633,17.7 3.633,17.7 2.546,16.956 3.717,16.971 3.717,16.971 c 1.205,0.084 1.838,1.236 1.838,1.236 1.07,1.835 2.809,1.305 3.495,0.998 C 9.158,18.429 9.467,17.9 9.81,17.6 7.145,17.3 4.344,16.268 4.344,11.67 4.344,10.36 4.809,9.29 5.579,8.45 5.444,8.147 5.039,6.927 5.684,5.274 c 0,0 1.005,-0.322 3.3,1.23 0.96,-0.267 1.98,-0.399 3,-0.405 1.02,0.006 2.04,0.138 3,0.405 2.28,-1.552 3.285,-1.23 3.285,-1.23 0.645,1.653 0.24,2.873 0.12,3.176 0.765,0.84 1.23,1.91 1.23,3.22 0,4.61 -2.805,5.625 -5.475,5.92 0.42,0.36 0.81,1.096 0.81,2.22 0,1.606 -0.015,2.896 -0.015,3.286 0,0.315 0.21,0.69 0.825,0.57 C 20.565,22.092 24,17.592 24,12.297 c 0,-6.627 -5.373,-12 -12,-12"
     id="path835"
     style="fill:#000000;fill-opacity:1;stroke-width:1.00157;stroke-miterlimit:4;stroke-dasharray:none;fill-rule:nonzero;stroke:none;stroke-opacity:1" />
  <path
     style="fill:#8ab0bf;fill-opacity:1;fill-rule:nonzero;stroke:none;stroke-width:0.0337609;stroke-miterlimit:4;stroke-dasharray:none;stroke-opacity:1"
     d="M 7.993264,23.585133 C 6.9185801,23.201202 5.8020779,22.607862 4.9089944,21.946067 4.3484046,21.530657 4.0224351,21.248085 3.5096248,20.733 1.7813611,18.997071 0.65296815,16.838843 0.20833874,14.418775 -0.04184898,13.057031 -0.03607219,11.508634 0.22446807,10.095506 0.53652821,8.4029421 1.2264119,6.7854995 2.2589938,5.3255293 2.8014221,4.5585884 3.7452068,3.5622119 4.5045,2.9548931 7.7063154,0.39392966 11.950234,-0.36079442 15.816564,0.94319423 c 1.69733,0.57245447 3.199558,1.48549027 4.489899,2.72890467 1.91982,1.8500015 3.142196,4.2273865 3.554021,6.9121711 0.08401,0.54769 0.09055,0.668254 0.09135,1.685393 9.4e-4,1.195809 -0.02474,1.481634 -0.218588,2.432406 -0.709497,3.479966 -2.954062,6.466632 -6.133238,8.161016 -0.766122,0.408315 -1.774879,0.799836 -2.060784,0.799836 -0.227988,0 -0.414545,-0.100171 -0.50056,-0.268773 -0.06561,-0.128611 -0.06788,-0.195575 -0.06807,-2.013592 -1.68e-4,-1.482118 -0.0107,-1.950199 -0.04974,-2.20926 -0.08794,-0.583424 -0.29537,-1.080813 -0.590616,-1.416231 -0.07725,-0.08776 -0.122147,-0.159559 -0.09978,-0.159559 0.105187,0 0.797053,-0.114037 1.142748,-0.188354 0.845104,-0.181679 1.696341,-0.536726 2.260239,-0.942735 0.348898,-0.251209 0.847573,-0.766802 1.074046,-1.110484 0.437287,-0.663601 0.697664,-1.408094 0.854695,-2.443821 0.06953,-0.458578 0.05846,-1.868532 -0.01743,-2.220497 C 19.372411,9.8902898 19.08494,9.2780562 18.591376,8.6591761 L 18.413654,8.4363297 18.459632,8.3028776 C 18.635093,7.7935962 18.68372,6.8584184 18.56623,6.2528091 18.475352,5.7843773 18.317073,5.2994316 18.241936,5.2592195 18.0898,5.1777992 17.475759,5.2618959 16.97641,5.4325423 16.438872,5.6162391 15.760897,5.963962 15.193106,6.3471725 l -0.199034,0.1343313 -0.374,-0.087447 C 13.71715,6.1829387 12.961667,6.0980593 11.985494,6.0980593 c -0.923199,0 -1.669583,0.078393 -2.4585221,0.2582201 C 9.3230393,6.4027625 9.1159857,6.4493889 9.0668531,6.459893 8.999283,6.4743388 8.9294841,6.4468373 8.7803362,6.3470016 8.230086,5.9786795 7.3945112,5.5626031 6.8713857,5.3964351 6.4998044,5.278404 5.9825852,5.2018221 5.7958159,5.2371813 5.682807,5.258576 5.6651528,5.2774363 5.6032389,5.4429163 5.3330147,6.1651555 5.248136,7.156047 5.3949394,7.8746495 5.4332474,8.0621673 5.4857424,8.2658963 5.5115946,8.3273808 5.5580663,8.4379045 5.5566664,8.4414884 5.3880398,8.6437426 4.8997729,9.229379 4.5737869,9.9267017 4.4141083,10.727095 c -0.1321075,0.662193 -0.09897,1.806838 0.078323,2.705489 0.3384044,1.715276 1.3015887,2.93661 2.8266751,3.584273 0.6082342,0.2583 1.5387698,0.493507 2.2344003,0.564776 l 0.2246791,0.02302 -0.1593148,0.17495 C 9.3759202,18.046396 9.1293239,18.597405 9.0560295,19.037247 9.0275019,19.20844 8.9788978,19.239773 8.5482765,19.364562 7.2990023,19.726587 6.3330782,19.363874 5.6167564,18.263752 5.1623218,17.565833 4.6373309,17.146303 4.043097,17.00621 3.6607955,16.91608 3.2818977,16.96159 3.1851383,17.109268 c -0.1010831,0.154272 0.054964,0.348594 0.5451332,0.678841 0.4825237,0.325096 0.8917705,0.89252 1.227872,1.702455 0.36045,0.86861 1.0786581,1.448905 2.0401405,1.648386 0.3842366,0.07972 1.1821254,0.08656 1.6185755,0.01387 0.1668539,-0.02779 0.3223315,-0.05079 0.3455056,-0.05111 0.032838,-4.58e-4 0.042135,0.23624 0.042135,1.072762 0,1.053646 -0.00142,1.076028 -0.07718,1.219299 -0.088071,0.166545 -0.2375579,0.259132 -0.4636079,0.287145 -0.117717,0.01459 -0.2195164,-0.0061 -0.4704482,-0.09578 z"
     id="path857" />
  <path
     style="fill:none;fill-opacity:1;fill-rule:nonzero;stroke:none;stroke-width:0.03401575;stroke-miterlimit:4;stroke-dasharray:none;stroke-opacity:1;filter:url(#filter842)"
     d="M 8.0943876,23.600213 C 7.4722641,23.389837 6.458854,22.911635 5.8359607,22.534519 4.6107701,21.792757 3.5683675,20.877797 2.6625987,19.749127 1.2447646,17.982377 0.37955311,15.89428 0.10118212,13.567416 0.04421374,13.091225 0.04332795,11.564243 0.09973514,11.073034 0.37667152,8.6613958 1.29044,6.4832367 2.7723701,4.7022473 3.1529997,4.2448049 4.0957129,3.3077925 4.4876461,2.9973439 6.3051482,1.5577077 8.2748191,0.72191349 10.571916,0.41559412 c 0.629068,-0.0838867 2.252428,-0.0830882 2.865168,0.001409 3.338829,0.46042805 6.119337,2.07140158 8.121033,4.70517208 1.153622,1.5179009 1.899929,3.2795736 2.268133,5.3539728 0.0918,0.517169 0.09397,0.558837 0.09371,1.793515 -3.03e-4,1.378963 -0.016,1.555362 -0.223057,2.505808 -0.75935,3.485573 -3.019526,6.456631 -6.150036,8.084376 -0.54982,0.285886 -1.04042,0.501512 -1.494073,0.656668 -0.293676,0.100442 -0.385286,0.117696 -0.564368,0.106293 -0.188301,-0.01199 -0.227832,-0.02723 -0.331649,-0.127854 -0.06483,-0.06283 -0.125965,-0.160716 -0.135864,-0.217519 -0.0099,-0.0568 -0.03149,-1.01339 -0.04797,-2.12575 -0.03261,-2.200487 -0.03358,-2.21159 -0.239811,-2.746352 -0.05726,-0.148473 -0.186475,-0.38476 -0.287153,-0.525083 -0.100677,-0.140323 -0.183049,-0.259836 -0.183049,-0.265585 0,-0.0057 0.0948,-0.02104 0.210674,-0.03398 0.389022,-0.04345 1.199529,-0.218943 1.583169,-0.342786 0.79756,-0.257461 1.402732,-0.579792 1.881726,-1.00226 0.861005,-0.759396 1.332448,-1.651429 1.587139,-3.003079 0.08606,-0.456734 0.123842,-1.698349 0.06827,-2.243793 C 19.513801,10.202442 19.202327,9.4415282 18.67406,8.7416212 L 18.440882,8.4326805 18.508248,8.1895844 C 18.712961,7.4508516 18.679556,6.4371233 18.42391,5.6301951 18.301868,5.2449769 18.281004,5.2247192 18.006312,5.2247192 c -0.679625,0 -1.682917,0.3750671 -2.631585,0.9837822 C 15.042938,6.4213939 14.971912,6.4543878 14.885962,6.4355485 13.781084,6.1933703 13.422857,6.1409016 12.616045,6.1030777 11.532312,6.0522715 10.523765,6.1265825 9.6112415,6.3244747 8.9515887,6.4675285 9.0215689,6.4737331 8.6472262,6.239002 7.6408773,5.6079709 6.6237209,5.2247192 5.9553034,5.2247192 c -0.2347531,0 -0.256675,0.00619 -0.309953,0.087501 -0.031533,0.048126 -0.09312,0.2110581 -0.13686,0.362072 C 5.2646862,6.5160388 5.252674,7.642076 5.480607,8.2881075 L 5.528499,8.4238487 5.2681995,8.7717782 c -0.42966,0.5743052 -0.7138382,1.2095434 -0.8711481,1.9473228 -0.092744,0.434966 -0.083068,1.695215 0.01805,2.351038 0.2830712,1.835925 1.1436559,3.091503 2.627223,3.833073 0.5700455,0.284941 1.5416548,0.565922 2.2824003,0.66005 0.1668539,0.0212 0.3228906,0.04445 0.3467487,0.05167 0.028484,0.0086 -0.00439,0.07355 -0.095729,0.189103 -0.2274833,0.287788 -0.4692529,0.827419 -0.5239459,1.169451 -0.02819,0.176289 -0.116635,0.252328 -0.3911084,0.336248 C 7.8590342,19.554838 7.2730745,19.535021 6.6801994,19.242754 6.4547804,19.13163 6.3343702,19.041685 6.1040396,18.812371 5.9438885,18.652927 5.7474765,18.423876 5.6675686,18.303371 5.0656216,17.395599 4.4086688,16.955056 3.656916,16.955056 c -0.2605146,0 -0.37282,0.02859 -0.4617917,0.117562 -0.1433657,0.143366 -0.00141,0.353509 0.4674547,0.691986 0.5226697,0.377322 0.810064,0.754072 1.2029437,1.576965 0.2742509,0.574423 0.4178858,0.795293 0.6906195,1.061982 0.3414617,0.333893 0.689399,0.536383 1.1799337,0.686691 0.2824254,0.08654 0.3317501,0.09096 1.0380873,0.093 0.4078652,0.0012 0.8423366,-0.01082 0.965492,-0.02667 l 0.223919,-0.02882 0.012036,0.534439 c 0.00662,0.293942 0.00445,0.787482 -0.00482,1.096756 -0.01829,0.610224 -0.031943,0.655613 -0.245067,0.814734 -0.1252223,0.09349 -0.3992676,0.105009 -0.6313375,0.02653 z"
     id="path859" />
  <path
     style="fill:#000000;fill-opacity:0;fill-rule:nonzero;stroke:none;stroke-width:0.0337609;stroke-miterlimit:4;stroke-dasharray:none;stroke-opacity:1"
     d="M 8.0319825,23.578614 C 7.3795372,23.351583 6.4950566,22.930821 5.837727,22.534772 4.2348533,21.569021 2.8596756,20.216495 1.8508989,18.613613 1.525929,18.097257 1.0109121,17.056994 0.80205541,16.495095 0.48727431,15.648223 0.23389255,14.613523 0.1181307,13.702247 0.04478322,13.124857 0.03428978,11.639121 0.09956113,11.073034 0.32284846,9.1365007 0.90722698,7.4714532 1.9320193,5.8518803 2.650791,4.7159394 3.7443128,3.5442527 4.8752865,2.6982275 6.5417208,1.4516511 8.5410778,0.66340378 10.706747,0.3991721 c 0.56952,-0.0694866 2.142199,-0.0598243 2.713483,0.0166713 1.29871,0.17389868 2.437215,0.49923732 3.589888,1.025845 2.358262,1.0773907 4.382517,3.0051278 5.582936,5.3167386 0.598198,1.1519329 0.984466,2.3164149 1.233196,3.717721 0.0918,0.517169 0.09397,0.558837 0.09371,1.793515 -3.03e-4,1.378963 -0.016,1.555362 -0.223057,2.505808 -0.319256,1.46545 -0.902625,2.851994 -1.714065,4.073966 -0.494002,0.743933 -0.859442,1.190481 -1.499908,1.832809 -1.158123,1.161487 -2.363898,1.981039 -3.834188,2.606056 -0.605793,0.25752 -0.925358,0.349467 -1.162183,0.334387 -0.186229,-0.01186 -0.226202,-0.02734 -0.329782,-0.127735 -0.06483,-0.06283 -0.126169,-0.160716 -0.136316,-0.217519 -0.01015,-0.0568 -0.03147,-1.01339 -0.04739,-2.12575 -0.02879,-2.012125 -0.02938,-2.024148 -0.114542,-2.350141 -0.102507,-0.392377 -0.237923,-0.686646 -0.446123,-0.969466 -0.08479,-0.115179 -0.149317,-0.212979 -0.143394,-0.217332 0.0059,-0.0044 0.139701,-0.02651 0.297286,-0.04924 1.230418,-0.17746 2.284854,-0.545315 3.022404,-1.05441 0.327767,-0.226242 0.855544,-0.753833 1.082461,-1.082081 0.482156,-0.697462 0.816626,-1.68181 0.922347,-2.714471 0.05086,-0.496791 0.01675,-1.839501 -0.05412,-2.130275 C 19.358403,9.8416585 19.066785,9.2413965 18.58846,8.6268857 L 18.44234,8.4391642 18.510859,8.1718295 C 18.660671,7.5873162 18.68189,6.7290017 18.560776,6.152667 18.4866,5.799687 18.357706,5.3965663 18.286861,5.2959823 c -0.05505,-0.078159 -0.06622,-0.079876 -0.397031,-0.061002 -0.412243,0.02352 -0.839807,0.1353833 -1.350435,0.3533124 -0.373424,0.1593728 -1.009982,0.507568 -1.362715,0.7454002 L 14.987646,6.461151 14.566298,6.3665846 C 13.551314,6.1387838 12.488288,6.0499582 11.397758,6.1018248 10.667639,6.1365496 10.306346,6.1805087 9.6983177,6.3085986 8.9317166,6.4700937 9.0430874,6.4822501 8.546734,6.182901 7.4906309,5.5459676 6.5445516,5.2040748 5.9141808,5.2315518 5.6861326,5.2414922 5.6837841,5.2425776 5.623499,5.3659079 5.3477039,5.930126 5.2324601,7.1935565 5.3904051,7.9213484 5.4286271,8.097472 5.4754928,8.2822686 5.4945506,8.3320076 5.526058,8.4142382 5.508215,8.4506579 5.2978588,8.733481 4.884089,9.2897933 4.6417729,9.7834834 4.4730583,10.413915 c -0.1235086,0.461512 -0.1659789,0.937281 -0.1430882,1.602939 0.062465,1.816482 0.5095682,3.029823 1.4722827,3.995454 0.3837809,0.384944 0.7391538,0.639443 1.247191,0.89317 0.5661212,0.282737 1.5404012,0.564401 2.2752809,0.657784 0.1668539,0.0212 0.3228906,0.04445 0.3467487,0.05167 0.028484,0.0086 -0.00439,0.07355 -0.095729,0.189103 -0.076509,0.09679 -0.1890394,0.275283 -0.2500675,0.396648 -0.1140004,0.22671 -0.2874688,0.73367 -0.2874688,0.840125 0,0.148123 -0.29631,0.279729 -0.8784323,0.390156 -0.5487128,0.104089 -1.004161,0.04615 -1.4795764,-0.18821 C 6.3267792,19.068529 5.9185153,18.677055 5.5984247,18.205466 5.2173748,17.644067 4.7933912,17.276922 4.2779424,17.062006 c -0.1846541,-0.07699 -0.2596521,-0.08836 -0.5880931,-0.08917 -0.3526502,-8.66e-4 -0.3819502,0.0042 -0.463483,0.08079 -0.047869,0.04495 -0.087035,0.116953 -0.087035,0.160016 0,0.108403 0.1957994,0.314573 0.5232472,0.55096 0.5167715,0.373063 0.8111807,0.756207 1.1882005,1.54632 0.2670132,0.559576 0.3962285,0.765499 0.6432651,1.025136 0.356196,0.374366 0.7676076,0.616995 1.3097197,0.772403 0.2336781,0.06699 0.3403365,0.07535 0.9703989,0.0761 0.3893258,4.58e-4 0.8157013,-0.01187 0.9475008,-0.02739 l 0.2396359,-0.02822 0.013999,0.567551 c 0.0077,0.312153 0.00604,0.805427 -0.00368,1.096164 -0.01555,0.464943 -0.026051,0.539803 -0.087178,0.621513 -0.1918874,0.256498 -0.4466673,0.305646 -0.8524571,0.164443 z"
     id="path861" />
</svg>
